<svg aria-hidden="true" focusable="false" data-prefix="fas" data-icon="user-alt" class="svg-inline--fa fa-user-alt fa-w-16" role="img" xmlns="http://www.w3.org/2000/svg" viewBox="0 0 512 512" style="background: white;"><path d="M256,278.625 C309.72461,278.625 353.3125,235.03711 353.3125,181.3125 S309.72461,84 256,84 S158.6875,127.58789 158.6875,181.3125 S202.27539,278.625 256,278.625 zM342.5,300.25 L305.26445,300.25 C290.26211,307.14297 273.57031,311.0625 256,311.0625 S221.80547,307.14297 206.73555,300.25 L169.5,300.25 C121.72227,300.25 83,338.97227 83,386.75 L83,397.5625 C83,415.4707 97.5293,430 115.4375,430 L396.5625,430 C414.4707,430 429,415.4707 429,397.5625 L429,386.75 C429,338.97227 390.27773,300.25 342.5,300.25 z" fill="#d8d8d8"></path></svg>



